PathFileType	4	(X/Y/Z)	RBDS020\RBDS020runT45.trc
DataRate	CameraRate	NumFrames	NumMarkers	Units	OrigDataRate	OrigDataStartFrame	OrigNumFrames
150.000000	150.000000	5	33	mm	150.000000	562	4500
Frame#	Time	L.ASIS			L.Heel.Bottom			L.Heel.Lateral			L.Heel.Top			L.Iliac.Crest			L.MT1			L.MT5			L.PSIS			L.Shank.Bottom.Lateral			L.Shank.Bottom.Medial			L.Shank.Top.Lateral			L.Shank.Top.Medial			L.Thigh.Bottom.Lateral			L.Thigh.Bottom.Medial			L.Thigh.Top.Lateral			L.Thigh.Top.Medial			R.ASIS			R.ASY			R.Heel.Bottom			R.Heel.Lateral			R.Heel.Top			R.Iliac.Crest			R.MT1			R.MT5			R.PSIS			R.Shank.Bottom.Lateral			R.Shank.Bottom.Medial			R.Shank.Top.Lateral			R.Shank.Top.Medial			R.Thigh.Bottom.Lateral			R.Thigh.Bottom.Medial			R.Thigh.Top.Lateral			R.Thigh.Top.Medial			
		X1	Y1	Z1	X2	Y2	Z2	X3	Y3	Z3	X4	Y4	Z4	X5	Y5	Z5	X6	Y6	Z6	X7	Y7	Z7	X8	Y8	Z8	X9	Y9	Z9	X10	Y10	Z10	X11	Y11	Z11	X12	Y12	Z12	X13	Y13	Z13	X14	Y14	Z14	X15	Y15	Z15	X16	Y16	Z16	X17	Y17	Z17	X18	Y18	Z18	X19	Y19	Z19	X20	Y20	Z20	X21	Y21	Z21	X22	Y22	Z22	X23	Y23	Z23	X24	Y24	Z24	X25	Y25	Z25	X26	Y26	Z26	X27	Y27	Z27	X28	Y28	Z28	X29	Y29	Z29	X30	Y30	Z30	X31	Y31	Z31	X32	Y32	Z32	X33	Y33	Z33	

563	3.746666666666667	2287.061057859543	1015.30130149106	907.0755359867351	2090.052934857934	231.0004649353171	959.1607329270613	2122.487614799162	236.6615961965896	916.3241168438313	2125.221418135895	264.0924893112174	960.8904630376094	2228.244581487562	1062.030639310307	862.3783484517213	2276.176131378418	112.7167004564364	985.8081045641272	2241.06296784379	129.9478389972329	881.6440868256656	2127.308782637837	1047.618062591253	958.6369449553467	2238.777188107567	302.2943503053278	898.8162889557744	2205.862255822554	330.2259701572815	934.3087742009034	2280.416093127806	370.4272856626269	886.0307656108771	2249.829255119673	397.6498933060265	921.1025181058324	2378.641586823317	718.5192837317372	846.4183516061753	2326.288876847636	674.4235003684623	871.6697337986908	2305.028850853138	798.3994010396382	833.1006900866278	2254.631877089381	756.3196337307678	856.7302571268452	2276.781066547628	982.8774699702647	1133.078633426202	1869.158763723487	89.74128655351717	1068.243919580564	1687.688192415995	149.9767948234295	1039.812514111134	1712.214995597761	144.5944328745646	1087.229929835253	1716.400147977912	180.4266337332872	1046.780425070157	2243.562200723693	1039.026063290353	1154.931676960958	1870.420229530532	51.56952449733267	1017.016150663282	1832.351056442925	49.06540689245806	1122.544997749086	2126.763661034998	1044.418036659789	1055.992754200932	1835.949205918668	244.720484483904	1118.064545544575	1808.524063792541	273.4537897122864	1085.49506746881	1884.328515748755	312.7574529517739	1135.160822599041	1850.859130813894	340.2999351227349	1103.596833374727	2072.033127049443	640.6518943685588	1159.775781888966	2023.756392942481	654.6404015643863	1109.79673063617	2090.363604486591	749.7399520228093	1169.809763994643	2045.856430244042	761.8307986142028	1119.819676899171	
564	3.753333333333333	2288.999712259429	1018.431851827495	907.9986925168571	2118.569697449032	209.8217966807211	962.1057129838109	2150.019455104053	218.269207608573	918.9558387954388	2151.239381371548	245.5708574144078	963.7208670907618	2230.552333658569	1066.227143041666	862.4845941896375	2313.650733387033	105.670655417723	985.7118516406412	2276.082605817639	120.9010837908911	882.1260308917216	2130.128681814403	1052.119121859749	957.5274744714794	2261.333967963791	292.2470359941651	900.2795620315063	2226.909046678495	317.7668131734408	936.1439909624372	2297.898337019059	363.2085676045764	887.0954704447737	2265.863097323052	388.1821789527451	922.5318118848334	2381.918914080984	723.3541702019591	847.1601443221101	2329.555727612551	679.0974310813881	872.0918748512466	2308.049361493529	802.9064147660566	833.2781971239091	2257.699196081574	760.6885437289484	856.6069133338096	2278.315547538417	985.5692443632557	1133.251398525457	1847.348505924378	93.65669114033399	1070.364852692826	1671.006416157477	168.4103747111752	1043.594952370988	1695.407616289215	160.5676864925535	1090.79518549378	1702.029848323354	196.3927089687884	1050.754041136625	2246.429466323006	1042.47539909847	1153.923245432211	1845.480560805314	55.51163936052499	1018.650692936637	1807.492386952703	54.19756950204083	1124.017371418656	2129.05986074915	1048.94595680077	1054.760788055034	1820.144828176172	255.2477207754844	1121.002646275753	1793.021095690856	283.6099282296618	1087.695264963266	1868.724038989081	323.3947294221179	1137.37223854239	1835.533298485821	350.570338693643	1105.09728560301	2062.430200315763	650.14195079168	1159.459631739503	2015.876505037091	665.5194761642914	1108.179978327892	2084.680159592398	758.5056135381519	1168.778124365284	2042.147914304705	771.7545833991954	1117.4133827296	
565	3.76	2290.776077728239	1020.983616230987	908.9289858242978	2148.397544381933	189.3928108315729	965.1830566297513	2178.647022347676	200.4532703640755	921.6863990995766	2178.370404834886	227.5720742549529	966.6200437011835	2232.72977535888	1069.771048702773	862.6275568597495	2351.300634365117	100.0713408762965	985.6876562911385	2311.405574328123	112.9505255008495	882.6651551330511	2132.839012083828	1056.382746757669	956.4489375101322	2284.259249734157	282.415043723469	901.6799397436051	2248.546810875526	305.4598445443935	937.9322362205736	2315.541872913107	355.7876814985915	888.0178179467963	2282.253737850846	378.4600974942396	923.830909665326	2384.130887139806	726.8686914928728	847.8204528745114	2331.653379794775	682.6929060720853	872.6258483260119	2310.310516360201	806.3890971940975	833.5227725057013	2259.904333070603	764.2777238699285	856.7609966532067	2279.741137309536	988.1634232325489	1133.417812648135	1826.18395628392	98.72133948443889	1072.483321125317	1655.701514471567	187.3776332222693	1047.806535807304	1679.910615196276	177.1649537984767	1094.731482836369	1688.876063724799	212.790425841346	1055.027819319244	2248.973480372997	1045.824493516383	1153.038191733308	1821.201456395004	60.78573327078774	1020.41856415353	1783.64450544394	60.55892434891559	1125.647641574362	2131.268575299679	1053.47279371652	1053.576820575498	1805.673387876691	265.818693425361	1123.995131392402	1778.773338537047	293.9548192162032	1090.178261947898	1854.666576823743	333.9091811787587	1139.584517932137	1821.687973492514	360.8641911008437	1106.84428049263	2053.95516443502	659.3363344851866	1159.05951138002	2009.041817005894	675.8988187759329	1106.574916235329	2079.779780189201	766.90515356106	1167.696462863165	2039.143702216823	781.133844376704	1115.059889868798	
566	3.766666666666667	2292.354478997091	1022.995536322573	909.8500443974739	2179.340812282722	169.8956107204004	968.2607756131827	2208.208678777318	183.3479137204286	924.3945980700034	2206.414357568754	210.2567568647164	969.4406898085435	2234.761884906118	1072.669429393192	862.8102176773423	2388.808023299538	96.09008113205077	985.8169397538733	2346.83273980609	106.1959920550107	883.3064154847892	2135.355081648029	1060.341452440799	955.4682283431163	2307.390317509634	272.9196986778339	902.9625270291388	2270.592137255384	293.4418369459823	939.5954556070085	2333.223639709496	348.2609363726523	888.7625058584379	2298.858846468217	368.5921577407508	924.9437144128107	2385.234330316558	729.0445606465628	848.3223063094639	2332.578591884362	685.1878150586621	873.256999605836	2311.738122021759	808.8035902006309	833.7731498847691	2261.20022423299	767.0327947193866	857.1773641282379	2281.04657565597	990.5953751703885	1133.570716651161	1805.640155905832	105.0592817831821	1074.55828093422	1641.533410012715	206.6781735017231	1052.309186392936	1665.50332542146	194.2261490166092	1098.909574328103	1676.653798665556	229.4915175822477	1059.457806850298	2251.191377182527	1049.043065013974	1152.296627615822	1797.599805389102	67.49530648161472	1022.274764368067	1760.811095394006	68.2372586389649	1127.407017514559	2133.351047210289	1057.896743964255	1052.523316922672	1792.378752508104	276.4165971051112	1126.950919071441	1765.654970243423	304.5269098531902	1092.881195681194	1842.070506918861	344.207363771313	1141.740653946919	1809.266776094755	371.1526222582817	1108.806723837176	2046.760784762494	667.9015526222654	1158.610176626531	2003.298803026749	685.4811019362412	1105.109384154134	2075.770938310508	774.6512355401341	1166.666636958659	2036.822654679124	789.7249587238807	1112.954302668714	
567	3.773333333333333	2293.708323427993	1024.525312405748	910.7359471200446	2211.136208456549	151.4886650374057	971.2118031656121	2238.480544272352	167.0812557427861	926.9661769385356	2235.102487717589	193.7628045268595	972.0475648663755	2236.626240831916	1074.953704250323	863.0248407305992	2425.790379115594	93.86812137415988	986.1708526046441	2382.116752108312	100.740579787706	884.0898871599966	2137.600212147212	1063.926350338163	954.6395174471999	2330.509073246514	263.8817415416514	904.0836960549639	2292.803163961955	281.8438438757988	941.0681274439661	2350.7693373306	340.7356040244538	889.3091252316924	2315.483339252226	358.6914787284075	925.8306827786946	2385.224677923164	729.922404915809	848.5815702553108	2332.367750944439	686.6143344908334	873.9482695100825	2312.296026623851	810.1584589860611	833.9549550441895	2261.580876889654	768.9462306026721	857.8120832509325	2282.228027569466	992.8102596843426	1133.703450661296	1785.719135841851	112.7494276209642	1076.549697128718	1628.2677148485	226.1407790981744	1056.918728120751	1651.968751893807	211.6194403304311	1103.160477429385	1665.097901512594	246.3953950649832	1063.861182848023	2253.077406175381	1052.096037388692	1151.708363404897	1774.720999420252	75.68710769597986	1024.170940860405	1738.99111748313	77.29152176619337	1129.261836325557	2135.267798754131	1062.102907169359	1051.664376035453	1780.100135749922	287.0653982107681	1129.771295803199	1753.550741568267	315.3895332740937	1095.70690875307	1830.823716102255	354.2456033156739	1143.783863633201	1798.203507929086	381.4402696940255	1110.923048056196	2040.984411849913	675.5242636251246	1158.166603088387	1998.69220495404	693.9911305627196	1103.915741885399	2072.749903505459	781.4764134570653	1165.804868919588	2035.162803184537	797.3050816283359	1111.293566202595	
